<svg viewBox="0 0 24 24" fill="none" xmlns="http://www.w3.org/2000/svg">
<g id="clarity:search-line" clip-path="url(#clip0_22_34)">
<path id="Vector" d="M10.8867 3.36667C12.3308 3.36535 13.7428 3.79236 14.9441 4.5937C16.1455 5.39503 17.0822 6.53467 17.6357 7.86846C18.1893 9.20224 18.3348 10.6702 18.0539 12.0867C17.773 13.5032 17.0782 14.8046 16.0576 15.8262C15.0369 16.8478 13.7362 17.5437 12.32 17.8259C10.9037 18.1081 9.43558 17.9639 8.10129 17.4116C6.767 16.8593 5.6265 15.9236 4.82407 14.723C4.02165 13.5224 3.59334 12.1108 3.59334 10.6667C3.60209 8.73444 4.3731 6.88374 5.73878 5.51681C7.10446 4.14988 8.95445 3.37719 10.8867 3.36667ZM10.8867 2C9.17257 2 7.49696 2.50829 6.07173 3.4606C4.6465 4.4129 3.53568 5.76645 2.87972 7.35008C2.22376 8.9337 2.05213 10.6763 2.38653 12.3575C2.72094 14.0386 3.54636 15.5829 4.75841 16.7949C5.97047 18.007 7.51472 18.8324 9.19589 19.1668C10.8771 19.5012 12.6196 19.3296 14.2033 18.6736C15.7869 18.0177 17.1404 16.9068 18.0927 15.4816C19.045 14.0564 19.5533 12.3808 19.5533 10.6667C19.5533 8.36812 18.6402 6.16372 17.0149 4.53841C15.3896 2.91309 13.1852 2 10.8867 2Z" fill="#009FB7"/>
<path id="Vector_2" d="M23.3333 22.1933L18.42 17.2467L17.4733 18.1867L22.3867 23.1333C22.4484 23.1955 22.5217 23.2449 22.6026 23.2787C22.6834 23.3125 22.77 23.3301 22.8576 23.3304C22.9452 23.3307 23.032 23.3137 23.1131 23.2805C23.1941 23.2473 23.2678 23.1984 23.33 23.1367C23.3922 23.075 23.4415 23.0016 23.4754 22.9208C23.5092 22.84 23.5267 22.7533 23.527 22.6657C23.5273 22.5781 23.5104 22.4913 23.4772 22.4103C23.4439 22.3292 23.395 22.2555 23.3333 22.1933Z" fill="#009FB7"/>
</g>
<defs>
<clipPath id="clip0_22_34">
<rect fill="white"/>
</clipPath>
</defs>
</svg>
